<svg viewBox="0 0 24 24" xmlns="http://www.w3.org/2000/svg" fill="white">
  <!-- 微信图标 -->
  <path d="M 8.5 2 C 4.9 2 2 4.7 2 8 C 2 9.5 2.5 10.9 3.3 12 C 3.1 12.7 2.5 14.5 2.2 15.5 C 2 16 2.3 16.5 2.8 16.3 L 5 15 C 6 15.3 7.1 15.5 8.2 15.5 C 11.8 15.5 14.7 12.8 14.7 9.5 C 14.7 6.2 11.8 3.5 8.2 3.5 L 8.5 2 M 8.5 4 C 11.2 4 13.5 5.9 13.5 8.2 C 13.5 10.5 11.2 12.4 8.5 12.4 C 7.6 12.4 6.8 12.2 6 11.9 L 4.5 12.8 L 5 10.8 C 4.3 9.9 3.9 8.7 3.9 7.4 C 3.9 5.1 6.2 3.2 8.9 3.2 L 8.5 4 M 6 8 C 5.5 8 5 7.5 5 7 C 5 6.5 5.5 6 6 6 C 6.5 6 7 6.5 7 7 C 7 7.5 6.5 8 6 8 M 11 8 C 10.5 8 10 7.5 10 7 C 10 6.5 10.5 6 11 6 C 11.5 6 12 6.5 12 7 C 12 7.5 11.5 8 11 8 M 17 10 C 17.6 10 18.2 10.1 18.7 10.3 L 20 9.5 L 19.5 11.5 C 20.2 12.4 20.6 13.6 20.6 14.9 C 20.6 17.2 18.3 19.1 15.6 19.1 C 14.7 19.1 13.9 18.9 13.1 18.6 C 14 19 15 19.4 16 19.4 C 18.7 19.4 21 17.5 21 15.2 C 21 13.9 20.6 12.7 19.9 11.8 L 20.5 9.8 C 20.7 9.2 20.4 8.7 19.9 8.8 L 17.7 10 C 17.4 10 17.2 10 17 10 M 14 14 C 13.5 14 13 13.5 13 13 C 13 12.5 13.5 12 14 12 C 14.5 12 15 12.5 15 13 C 15 13.5 14.5 14 14 14 M 18 14 C 17.5 14 17 13.5 17 13 C 17 12.5 17.5 12 18 12 C 18.5 12 19 12.5 19 13 C 19 13.5 18.5 14 18 14" />
</svg>
